<?xml version="1.0" standalone="no"?>
<!DOCTYPE svg PUBLIC "-//W3C//DTD SVG 20010904//EN"
 "http://www.w3.org/TR/2001/REC-SVG-20010904/DTD/svg10.dtd">
<svg version="1.0" xmlns="http://www.w3.org/2000/svg"
 width="512.000000pt" height="512.000000pt" viewBox="0 0 512.000000 512.000000"
 preserveAspectRatio="xMidYMid meet">
<metadata>
Created by potrace 1.16, written by Peter Selinger 2001-2019
</metadata>
<g transform="translate(0.000000,512.000000) scale(0.100000,-0.100000)"
fill="#000000" stroke="none">
<path d="M3747 2785 c-195 -32 -351 -127 -452 -273 -68 -101 -97 -193 -103
-329 -5 -136 12 -227 67 -339 80 -166 224 -281 506 -404 325 -141 419 -199
451 -277 21 -49 18 -139 -7 -190 -70 -144 -342 -188 -541 -87 -73 37 -182 145
-233 232 -3 4 -385 -220 -385 -226 0 -20 66 -116 121 -177 85 -95 139 -138
239 -189 159 -81 310 -116 505 -116 384 0 663 162 762 441 34 96 43 275 19
389 -24 113 -83 224 -162 304 -114 116 -230 184 -538 318 -233 101 -302 151
-325 235 -31 111 7 205 104 256 57 31 181 30 247 0 56 -26 128 -90 154 -138
10 -19 22 -35 26 -35 8 0 347 215 361 229 13 13 -72 128 -149 201 -87 82 -180
132 -297 160 -113 26 -261 32 -370 15z"/>
<path d="M2307 2763 c-4 -3 -7 -390 -7 -858 0 -603 -3 -868 -11 -906 -9 -43
-21 -63 -58 -100 -38 -39 -56 -49 -105 -59 -152 -31 -269 30 -358 187 l-30 53
-37 -23 c-20 -12 -107 -65 -194 -117 -86 -52 -157 -98 -157 -102 -1 -26 87
-147 159 -219 70 -70 102 -94 171 -127 124 -59 185 -73 350 -79 176 -6 279 10
388 62 176 83 287 218 337 410 26 100 30 257 27 1088 l-3 797 -233 0 c-128 0
-236 -3 -239 -7z"/>
</g>
</svg>
